<svg width="93" height="93" viewBox="0 0 93 93" fill="none" xmlns="http://www.w3.org/2000/svg">
<g opacity="0.5">
<path d="M73.625 11.625H19.375C15.0948 11.625 11.625 15.0948 11.625 19.375V73.625C11.625 77.9052 15.0948 81.375 19.375 81.375H73.625C77.9052 81.375 81.375 77.9052 81.375 73.625V19.375C81.375 15.0948 77.9052 11.625 73.625 11.625Z" stroke="#333333" stroke-width="1.5" stroke-linecap="round" stroke-linejoin="round"/>
<path d="M32.9374 38.7499C36.1476 38.7499 38.7499 36.1476 38.7499 32.9374C38.7499 29.7273 36.1476 27.1249 32.9374 27.1249C29.7273 27.1249 27.1249 29.7273 27.1249 32.9374C27.1249 36.1476 29.7273 38.7499 32.9374 38.7499Z" stroke="#333333" stroke-width="1.5" stroke-linecap="round" stroke-linejoin="round"/>
<path d="M81.375 58.1249L62 38.7499L19.375 81.3749" stroke="#333333" stroke-width="1.5" stroke-linecap="round" stroke-linejoin="round"/>
</g>
</svg>
