<svg width="257" height="257" viewBox="0 0 257 257" fill="none" xmlns="http://www.w3.org/2000/svg">
<g opacity="0.5">
<path d="M203.458 32.125H53.5417C41.7136 32.125 32.125 41.7136 32.125 53.5417V203.458C32.125 215.286 41.7136 224.875 53.5417 224.875H203.458C215.286 224.875 224.875 215.286 224.875 203.458V53.5417C224.875 41.7136 215.286 32.125 203.458 32.125Z" stroke="#F2F2F2" stroke-width="1.5" stroke-linecap="round" stroke-linejoin="round"/>
<path d="M91.0206 107.083C99.8916 107.083 107.083 99.8918 107.083 91.0207C107.083 82.1496 99.8916 74.9582 91.0206 74.9582C82.1495 74.9582 74.9581 82.1496 74.9581 91.0207C74.9581 99.8918 82.1495 107.083 91.0206 107.083Z" stroke="#F2F2F2" stroke-width="1.5" stroke-linecap="round" stroke-linejoin="round"/>
<path d="M224.875 160.625L171.333 107.083L53.5417 224.875" stroke="#F2F2F2" stroke-width="1.5" stroke-linecap="round" stroke-linejoin="round"/>
</g>
</svg>
